<svg width="28" height="28" viewBox="0 0 28 28" fill="none" xmlns="http://www.w3.org/2000/svg">
<g clip-path="url(#clip0_1083_384)">
<path d="M25.4545 0H2.54545C1.13964 0 0 1.79086 0 4V24C0 26.2091 1.13964 28 2.54545 28H25.4545C26.8604 28 28 26.2091 28 24V4C28 1.79086 26.8604 0 25.4545 0Z" fill="white" fill-opacity="0.04"/>
<mask id="mask0_1083_384" style="mask-type:luminance" maskUnits="userSpaceOnUse" x="5" y="4" width="19" height="20">
<path d="M24 4.5H5V23.5H24V4.5Z" fill="white"/>
</mask>
<g mask="url(#mask0_1083_384)">
<mask id="mask1_1083_384" style="mask-type:alpha" maskUnits="userSpaceOnUse" x="5" y="4" width="19" height="20">
<path d="M14.5009 23.4412C19.6828 23.4412 23.8836 19.2404 23.8836 14.0585C23.8836 8.87657 19.6828 4.67578 14.5009 4.67578C9.31896 4.67578 5.11816 8.87657 5.11816 14.0585C5.11816 19.2404 9.31896 23.4412 14.5009 23.4412Z" fill="#D9D9D9"/>
</mask>
<g mask="url(#mask1_1083_384)">
<path fill-rule="evenodd" clip-rule="evenodd" d="M13.7717 7.59094C15.4417 10.0201 18.9458 15.7894 19.6017 19.4332C19.207 16.67 17.7616 10.3602 15.1381 7.22656L13.7717 7.59094ZM7.39509 10.6882C9.88499 13.1173 15.7939 18.3219 19.5106 19.7065C17.0207 17.915 11.3668 13.3299 8.6704 9.32175H8.2149L7.39509 10.6882ZM19.6017 19.7976C18.1442 20.7389 13.6988 21.9838 7.5772 19.4332C7.5044 19.3603 6.8788 17.8239 6.5752 17.0648C8.1542 18.6134 12.97 21.328 19.6017 19.7976Z" fill="#D40E14"/>
<path fill-rule="evenodd" clip-rule="evenodd" d="M23.8764 14.4304C23.8812 14.307 23.8836 14.1831 23.8836 14.0585C23.8836 8.87656 19.6828 4.67578 14.5009 4.67578C9.31896 4.67578 5.11816 8.87656 5.11816 14.0585C5.11816 19.2404 9.31896 23.4412 14.5009 23.4412C14.6252 23.4412 14.749 23.4388 14.8721 23.434C10.2585 23.2465 6.57566 19.447 6.57566 14.7873C6.57566 10.0078 10.4502 6.13333 15.2296 6.13333C19.8896 6.13333 23.6892 9.81648 23.8764 14.4304Z" fill="#D40E14"/>
<path fill-rule="evenodd" clip-rule="evenodd" d="M22.4375 8.94726C20.913 7.86731 19.0161 7.22708 16.9602 7.22708C11.9291 7.22708 7.85073 11.0608 7.85073 15.79C7.85073 16.131 7.87193 16.4673 7.91313 16.7979C7.63633 15.9657 7.48633 15.0754 7.48633 14.1502C7.48633 9.5217 11.2385 5.76953 15.867 5.76953C18.5297 5.76953 20.9023 7.01128 22.4375 8.94726Z" fill="#D40E14"/>
<path fill-rule="evenodd" clip-rule="evenodd" d="M23.4682 16.4191C23.9543 14.0566 23.4271 11.8283 21.8382 10.5225C19.1995 8.35408 14.6316 9.55162 11.6357 13.1973C10.0515 15.1251 9.22401 17.3513 9.18601 19.342C8.54071 16.8924 9.2928 13.7831 11.394 11.2262C14.4577 7.49798 19.2295 6.35603 22.052 8.67553C24.1116 10.368 24.5642 13.4358 23.4682 16.4191Z" fill="#D40E14"/>
<path fill-rule="evenodd" clip-rule="evenodd" d="M14.768 24.3123C17.1227 24.9954 20.199 23.8237 22.3423 21.2157C24.9904 17.9932 25.2111 13.7982 22.8353 11.8458C20.4595 9.89341 16.3868 10.923 13.7386 14.1454C11.6464 16.6914 11.0694 19.8446 12.0911 22.0191C11.5485 20.1974 12.2245 17.6429 13.9984 15.4844C16.3977 12.5647 19.8969 11.475 21.814 13.0504C23.7311 14.6258 23.3402 18.2698 20.9408 21.1895C19.1256 23.3984 16.6809 24.5599 14.768 24.3123Z" fill="#D40E14"/>
<path fill-rule="evenodd" clip-rule="evenodd" d="M15.1059 21.7289C16.2115 23.1315 18.695 23.0173 20.6531 21.4739C22.6111 19.9305 23.3021 17.5423 22.1965 16.1398C21.091 14.7372 18.6074 14.8514 16.6494 16.3948C14.6914 17.9382 14.0004 20.3264 15.1059 21.7289ZM15.9497 21.556C16.8838 22.741 18.9568 22.6645 20.5798 21.3851C22.2029 20.1057 22.7614 18.108 21.8274 16.923C20.8933 15.738 18.8203 15.8145 17.1973 17.0939C15.5742 18.3733 15.0157 20.371 15.9497 21.556Z" fill="#D40E14"/>
</g>
</g>
</g>
<defs>
<clipPath id="clip0_1083_384">
<rect width="28" height="28" fill="white"/>
</clipPath>
</defs>
</svg>
