<svg width="28" height="28" viewBox="0 0 28 28" fill="none" xmlns="http://www.w3.org/2000/svg">
<g clip-path="url(#clip0_1083_408)">
<path d="M25.4545 0H2.54545C1.13964 0 0 1.79086 0 4V24C0 26.2091 1.13964 28 2.54545 28H25.4545C26.8604 28 28 26.2091 28 24V4C28 1.79086 26.8604 0 25.4545 0Z" fill="white" fill-opacity="0.04"/>
<path fill-rule="evenodd" clip-rule="evenodd" d="M12.8963 14.8626C12.9696 15.6098 13.0063 16.0064 12.4015 16.6521C11.7693 17.3254 10.1842 18.5615 8.56251 19.5023C7.87531 19.8989 6.94991 20.3786 6.25361 20.6368C5.73131 20.8213 5.30071 20.9043 5.08081 20.5261C4.94331 20.2771 5.00751 20.0557 5.08081 19.862C5.64881 18.3216 7.27061 15.4437 8.33341 13.5713C8.40671 13.4483 8.48001 13.3171 8.55331 13.1859C8.59001 13.1203 8.62661 13.0547 8.66331 12.9902C10.2942 10.1584 12.4565 6.69022 12.8872 6.12757C12.9421 6.05377 13.0612 5.96154 13.162 6.01688C13.2445 6.063 13.2445 6.16446 13.2353 6.23826C13.2353 6.24286 13.2285 6.27045 13.2205 6.30267C13.2124 6.33499 13.2032 6.37197 13.1987 6.39506C12.4932 9.25449 12.5756 12.0586 12.8963 14.8626ZM15.279 15.739C14.5918 15.4253 14.2345 15.2593 13.9871 14.4107C13.7214 13.5252 13.4557 11.5236 13.4557 9.64193C13.4557 8.84867 13.5015 7.79714 13.6298 7.05923C13.7306 6.51501 13.8772 6.09071 14.3169 6.09071C14.5918 6.09071 14.7476 6.26596 14.885 6.43199C15.9013 7.65253 17.4987 10.3924 18.5801 12.2473L18.6691 12.3999C18.7789 12.5933 18.8892 12.7876 18.9989 12.9902C20.6207 15.8312 22.5265 19.447 22.7922 20.0927C22.8288 20.1849 22.8563 20.3325 22.7555 20.397C22.6639 20.4432 22.5814 20.3878 22.5265 20.3509C22.5173 20.3417 22.444 20.2679 22.4074 20.2402C20.3 18.1925 17.8445 16.855 15.279 15.739ZM15.1222 16.9103C14.2609 16.7074 13.9402 16.938 13.3263 17.3807C11.0816 19.0595 8.70851 20.5261 5.89561 21.347C5.84981 21.3562 5.75821 21.3839 5.73991 21.3931C5.67571 21.4208 5.59331 21.4669 5.59331 21.5684C5.58411 21.6883 5.72161 21.7344 5.82231 21.7529C6.51871 21.8451 10.5776 21.9927 13.8303 22.0019H14.5083C14.5824 22.0013 14.6579 22.0006 14.7346 22C16.8694 21.9819 19.9881 21.9554 21.5359 21.6883C21.7466 21.6514 21.9665 21.6053 22.1131 21.3562C22.3238 20.9781 22.0398 20.6368 21.6183 20.277C21.0503 19.7974 20.1707 19.2347 19.4927 18.8381C17.8617 17.8973 16.0109 17.1317 15.1222 16.9103Z" fill="#00A3E0"/>
</g>
<defs>
<clipPath id="clip0_1083_408">
<rect width="28" height="28" fill="white"/>
</clipPath>
</defs>
</svg>
