<svg width="28" height="28" viewBox="0 0 28 28" fill="none" xmlns="http://www.w3.org/2000/svg">
<g clip-path="url(#clip0_1083_325)">
<path d="M25.4545 0H2.54545C1.13964 0 0 1.79086 0 4V24C0 26.2091 1.13964 28 2.54545 28H25.4545C26.8604 28 28 26.2091 28 24V4C28 1.79086 26.8604 0 25.4545 0Z" fill="white" fill-opacity="0.04"/>
<mask id="mask0_1083_325" style="mask-type:luminance" maskUnits="userSpaceOnUse" x="5" y="5" width="18" height="18">
<path d="M23 5H5V23H23V5Z" fill="white"/>
</mask>
<g mask="url(#mask0_1083_325)">
<path d="M21.9817 20.4003L21.2146 20.0173C21.0523 19.9363 20.8974 19.8405 20.7499 19.7447C22.1367 18.1389 22.8891 16.1207 22.8891 13.9698C22.8891 9.07876 18.9057 5.09375 14.0002 5.09375C12.9011 5.09375 11.8241 5.3 10.8135 5.6904V7.1415V7.30354C11.8019 6.83213 12.8863 6.58168 14.0002 6.58168C18.0795 6.58168 21.399 9.89639 21.399 13.9698C21.399 15.7229 20.7941 17.3729 19.6876 18.6914C19.5843 18.5367 19.4811 18.3747 19.3999 18.2052L19.0163 17.4392C18.8172 17.034 18.2049 17.174 18.2049 17.6307V20.7833C18.2049 21.0191 18.3967 21.2106 18.6327 21.2106H21.79C22.2399 21.2106 22.3801 20.5992 21.9817 20.4003Z" fill="#EA4B37"/>
<path d="M13.9773 8.07617C12.8117 8.07617 11.7274 8.41499 10.8053 8.99691V10.2933C10.8053 11.1036 10.1635 11.7444 9.35206 11.7444C9.07176 11.7444 8.81356 11.6634 8.58486 11.5235C8.23816 12.2748 8.03906 13.1071 8.03906 13.9837C8.03906 17.2468 10.6947 19.8912 13.9773 19.8912C15.1575 19.8912 16.2567 19.545 17.1787 18.9484V17.6225C17.1787 16.8122 17.8205 16.1714 18.6319 16.1714C18.9049 16.1714 19.1631 16.2451 19.3917 16.385C19.7237 15.6484 19.9081 14.8381 19.9081 13.9763C19.9081 10.7205 17.2525 8.07617 13.9773 8.07617Z" fill="#EA4B37"/>
<path d="M13.9919 21.3565C9.91265 21.3565 6.59315 18.0418 6.59315 13.9684C6.59315 13.8064 6.60045 13.6517 6.60785 13.4896C6.60785 13.4454 6.61525 13.4086 6.61525 13.3644C6.62265 13.2392 6.63735 13.114 6.65215 12.9887C6.65945 12.9593 6.65945 12.9224 6.66685 12.893C6.81445 11.8986 7.16115 10.9704 7.66275 10.1454C7.66275 10.1381 7.65535 10.1381 7.65535 10.1381C7.84715 9.82135 8.06845 9.51933 8.30445 9.23206C8.40775 9.38675 8.50365 9.54144 8.58485 9.71086L8.96835 10.4769C9.16755 10.882 9.77985 10.7421 9.77985 10.2854V7.14012C9.77985 6.90441 9.58805 6.71289 9.35195 6.71289H6.19475C5.74475 6.71289 5.59725 7.32426 6.00295 7.52315L6.77015 7.90618C6.93985 7.98722 7.09475 8.08298 7.24965 8.18609C6.74065 8.77538 6.32015 9.42358 5.98825 10.116C5.98825 10.1234 5.98085 10.1234 5.98085 10.1307C5.80375 10.499 5.64885 10.882 5.52345 11.2724C5.50875 11.3166 5.49395 11.3682 5.47925 11.4124C5.43495 11.5671 5.39075 11.7291 5.35385 11.8838C5.34645 11.9133 5.33905 11.9575 5.33165 11.9943C5.28745 12.1858 5.25055 12.3774 5.22105 12.5689C5.21365 12.6204 5.20625 12.672 5.19895 12.7162C5.17675 12.8709 5.16205 13.0256 5.14725 13.1802C5.13985 13.2392 5.13985 13.2981 5.13255 13.357C5.11775 13.5559 5.11035 13.7622 5.11035 13.9684C5.11035 18.8594 9.09375 22.8444 13.9993 22.8444C15.1206 22.8444 16.1976 22.6308 17.186 22.2552V20.7893V20.6346C16.2123 21.0913 15.1353 21.3565 13.9919 21.3565Z" fill="#EA4B37"/>
</g>
</g>
<defs>
<clipPath id="clip0_1083_325">
<rect width="28" height="28" fill="white"/>
</clipPath>
</defs>
</svg>
