<svg width="28" height="28" viewBox="0 0 28 28" fill="none" xmlns="http://www.w3.org/2000/svg">
<g clip-path="url(#clip0_1083_275)">
<path d="M25.4545 0H2.54545C1.13964 0 0 1.79086 0 4V24C0 26.2091 1.13964 28 2.54545 28H25.4545C26.8604 28 28 26.2091 28 24V4C28 1.79086 26.8604 0 25.4545 0Z" fill="white" fill-opacity="0.04"/>
<path d="M18.7031 17.3917C18.8728 17.448 19.0508 17.4749 19.2294 17.4712C20.0183 17.4712 20.3604 17.1532 20.3604 16.7827C20.3604 16.3587 19.7815 16.3587 19.7289 15.9617C19.6499 15.4847 19.7026 13.3657 20.5178 12.2002L21.0704 12.4387C21.1777 12.4887 21.2942 12.5158 21.4125 12.5182C21.4835 12.5157 21.5531 12.4978 21.6167 12.4658C21.6802 12.4338 21.7362 12.3884 21.7809 12.3327C22.3269 11.7357 22.8037 11.0782 23.2023 10.3727C23.2813 10.2402 22.1239 8.78324 21.4924 8.28024C21.0335 7.9211 20.4694 7.72507 19.8882 7.72274C19.3567 7.71852 18.8372 7.88244 18.403 8.19138C17.9688 8.50033 17.6419 8.93872 17.4683 9.44474C16.3621 10.225 15.1357 10.8163 13.8385 11.1947C12.076 11.6717 10.2613 11.2212 9.0513 11.3007C8.7162 11.2998 8.3843 11.3669 8.0756 11.4981C7.7668 11.6292 7.4874 11.8217 7.2542 12.064C7.0209 12.3063 6.8386 12.5935 6.718 12.9084C6.5974 13.2233 6.5411 13.5594 6.5525 13.8967C6.5788 15.2742 7.5256 16.5192 7.5256 17.8172C7.5306 18.0055 7.4983 18.1928 7.4306 18.3683C7.3628 18.5438 7.2611 18.7039 7.1313 18.8394C7.0015 18.9749 6.8462 19.083 6.6744 19.1574C6.5027 19.2318 6.3179 19.271 6.131 19.2727C5.4473 19.2727 5.421 19.0077 5.2105 19.0077C5.186 19.0013 5.1605 19.0006 5.1357 19.0055C5.111 19.0104 5.0876 19.0208 5.0674 19.036C5.0472 19.0513 5.0306 19.0709 5.019 19.0934C5.0073 19.1159 5.0008 19.1408 5 19.1662C5 19.5107 5.844 19.8287 6.3152 19.8287C6.6641 19.8414 7.0106 19.7656 7.3229 19.6084C7.6352 19.4511 7.9033 19.2174 8.1025 18.9287C8.2369 19.2296 8.4613 19.4807 8.7442 19.6469C9.0272 19.8131 9.3547 19.8861 9.6809 19.8557C10.6803 19.8557 11.1013 19.3787 11.1013 18.9817C11.1013 18.6637 10.9171 18.5317 10.7593 18.3192C10.6307 18.1431 10.5657 17.9281 10.5751 17.7097C10.7499 17.7285 10.9256 17.7373 11.1013 17.7362C11.8113 17.7362 12.0482 17.4447 12.0482 17.1532C12.0482 16.7822 11.6271 16.8087 11.6271 16.1997C11.6271 15.7227 11.8903 15.5902 12.1008 15.5902C12.3376 15.5902 13.2581 15.6697 14.3891 15.8022C14.7575 15.8287 15.68 16.1997 15.68 17.6567V18.1867C15.68 19.0607 16.0221 20.1737 17.6004 20.1737C18.6525 20.1737 19.2577 19.5907 19.2577 19.1407C19.2577 18.8492 19.0209 18.7432 18.8893 18.5577C18.7742 18.3896 18.6979 18.1977 18.666 17.996C18.6342 17.7943 18.6475 17.588 18.7051 17.3922" fill="#F26724"/>
<path d="M21.2555 11.0606C21.219 11.0606 21.1834 11.0715 21.1531 11.0919C21.1228 11.1122 21.0992 11.1412 21.0853 11.1751C21.0713 11.209 21.0677 11.2463 21.0748 11.2823C21.0819 11.3183 21.0994 11.3513 21.1252 11.3773C21.151 11.4032 21.1838 11.4209 21.2195 11.428C21.2552 11.4352 21.2923 11.4315 21.3259 11.4175C21.3596 11.4034 21.3884 11.3797 21.4086 11.3492C21.4289 11.3187 21.4397 11.2828 21.4397 11.2461C21.4403 11.2216 21.4359 11.1972 21.4269 11.1744C21.4178 11.1516 21.4043 11.1309 21.3871 11.1136C21.3698 11.0962 21.3493 11.0826 21.3267 11.0735C21.304 11.0644 21.2798 11.06 21.2555 11.0606Z" fill="white"/>
<path d="M21.8865 10.5041C21.8552 10.5041 21.8247 10.5134 21.7987 10.5308C21.7728 10.5483 21.7525 10.5732 21.7406 10.6022C21.7286 10.6313 21.7255 10.6632 21.7316 10.6941C21.7377 10.7249 21.7527 10.7532 21.7748 10.7755C21.7969 10.7977 21.825 10.8129 21.8557 10.819C21.8863 10.8251 21.918 10.822 21.9469 10.8099C21.9757 10.7979 22.0004 10.7775 22.0177 10.7514C22.0351 10.7252 22.0443 10.6945 22.0443 10.6631C22.0453 10.6419 22.0418 10.6208 22.0342 10.6011C22.0266 10.5814 22.015 10.5635 22.0001 10.5486C21.9853 10.5336 21.9675 10.5219 21.9479 10.5143C21.9284 10.5066 21.9074 10.5031 21.8865 10.5041Z" fill="white"/>
<path d="M22.2028 9.89453C22.1768 9.89453 22.1514 9.9023 22.1297 9.91686C22.1081 9.93142 22.0912 9.95211 22.0813 9.97633C22.0713 10.0005 22.0687 10.0272 22.0738 10.0529C22.0789 10.0786 22.0914 10.1022 22.1098 10.1207C22.1282 10.1393 22.1516 10.1519 22.1772 10.157C22.2027 10.1621 22.2291 10.1595 22.2532 10.1494C22.2772 10.1394 22.2978 10.1224 22.3122 10.1006C22.3267 10.0789 22.3344 10.0532 22.3344 10.027C22.3322 9.99262 22.3176 9.9602 22.2934 9.93582C22.2692 9.91144 22.237 9.89677 22.2028 9.89453Z" fill="white"/>
<path d="M16.9419 10.7697C16.9836 10.7697 17.0243 10.7573 17.0589 10.734C17.0935 10.7107 17.1205 10.6776 17.1364 10.6388C17.1523 10.6001 17.1565 10.5575 17.1484 10.5163C17.1403 10.4752 17.1202 10.4374 17.0908 10.4078C17.0613 10.3781 17.0238 10.358 16.983 10.3498C16.9422 10.3416 16.8998 10.3458 16.8614 10.3618C16.8229 10.3779 16.79 10.4051 16.7669 10.4399C16.7438 10.4748 16.7314 10.5158 16.7314 10.5577C16.7577 10.6902 16.8367 10.7697 16.9419 10.7697Z" fill="white"/>
<path d="M17.7042 15.5898C17.6778 15.5901 17.6518 15.596 17.6278 15.6072C17.6038 15.6183 17.5824 15.6344 17.565 15.6544C17.5477 15.6744 17.5347 15.6979 17.5269 15.7233C17.5191 15.7487 17.5168 15.7755 17.52 15.8018C17.5179 15.8542 17.5358 15.9054 17.5701 15.9449C17.6044 15.9843 17.6524 16.009 17.7042 16.0138C17.732 16.0142 17.7595 16.009 17.7852 15.9985C17.811 15.988 17.8343 15.9724 17.854 15.9527C17.8736 15.9329 17.8891 15.9094 17.8995 15.8834C17.9099 15.8575 17.9151 15.8298 17.9147 15.8018C17.8884 15.6958 17.8095 15.5898 17.7042 15.5898Z" fill="white"/>
<path d="M18.8883 15.8027C18.8467 15.8027 18.806 15.8152 18.7714 15.8385C18.7367 15.8618 18.7098 15.8949 18.6938 15.9336C18.6779 15.9723 18.6737 16.015 18.6818 16.0561C18.69 16.0972 18.71 16.135 18.7395 16.1646C18.7689 16.1943 18.8064 16.2145 18.8472 16.2227C18.8881 16.2308 18.9304 16.2266 18.9689 16.2106C19.0073 16.1946 19.0402 16.1674 19.0633 16.1325C19.0865 16.0977 19.0988 16.0567 19.0988 16.0147C19.0725 15.8822 18.9936 15.8027 18.8883 15.8027Z" fill="white"/>
<path d="M17.8619 13.7891C17.8061 13.7891 17.7526 13.8114 17.7131 13.8512C17.6736 13.8909 17.6514 13.9449 17.6514 14.0011C17.6514 14.0573 17.6736 14.1112 17.7131 14.151C17.7526 14.1907 17.8061 14.2131 17.8619 14.2131C17.8902 14.2157 17.9187 14.212 17.9455 14.2023C17.9722 14.1926 17.9965 14.177 18.0165 14.1568C18.0366 14.1366 18.0521 14.1121 18.0617 14.0852C18.0714 14.0583 18.075 14.0296 18.0724 14.0011C18.0729 13.9731 18.0677 13.9454 18.0572 13.9195C18.0468 13.8936 18.0313 13.87 18.0117 13.8503C17.9921 13.8305 17.9687 13.8149 17.943 13.8044C17.9172 13.7939 17.8897 13.7887 17.8619 13.7891Z" fill="white"/>
<path d="M18.5469 12.4377C18.6027 12.4377 18.6562 12.4153 18.6957 12.3756C18.7352 12.3358 18.7574 12.2819 18.7574 12.2257C18.7574 12.1694 18.7352 12.1155 18.6957 12.0758C18.6562 12.036 18.6027 12.0137 18.5469 12.0137C18.496 12.0207 18.4494 12.0461 18.4157 12.085C18.3819 12.124 18.3633 12.174 18.3633 12.2257C18.3633 12.2774 18.3819 12.3273 18.4157 12.3663C18.4494 12.4053 18.496 12.4306 18.5469 12.4377Z" fill="white"/>
<path d="M15.4419 11.6174C15.4835 11.6174 15.5242 11.6049 15.5589 11.5816C15.5935 11.5583 15.6205 11.5252 15.6364 11.4865C15.6523 11.4478 15.6565 11.4051 15.6484 11.364C15.6403 11.3229 15.6202 11.2851 15.5908 11.2555C15.5613 11.2258 15.5238 11.2056 15.483 11.1974C15.4421 11.1893 15.3998 11.1935 15.3614 11.2095C15.3229 11.2255 15.29 11.2527 15.2669 11.2876C15.2437 11.3224 15.2314 11.3634 15.2314 11.4054C15.2577 11.5379 15.3367 11.6174 15.4419 11.6174Z" fill="white"/>
<path d="M16.5738 15.1934C16.5321 15.1934 16.4914 15.2058 16.4568 15.2291C16.4222 15.2524 16.3952 15.2855 16.3793 15.3242C16.3633 15.363 16.3592 15.4056 16.3673 15.4467C16.3754 15.4878 16.3955 15.5256 16.4249 15.5553C16.4543 15.5849 16.4919 15.6051 16.5327 15.6133C16.5735 15.6215 16.6159 15.6173 16.6543 15.6012C16.6928 15.5852 16.7257 15.558 16.7488 15.5231C16.7719 15.4883 16.7843 15.4473 16.7843 15.4054C16.758 15.2729 16.679 15.1934 16.5738 15.1934Z" fill="white"/>
<path d="M16.021 12.5959C16.0474 12.5956 16.0735 12.5897 16.0974 12.5786C16.1214 12.5674 16.1428 12.5514 16.1602 12.5313C16.1776 12.5113 16.1906 12.4879 16.1983 12.4624C16.2061 12.437 16.2084 12.4103 16.2052 12.3839C16.2074 12.3315 16.1894 12.2803 16.1552 12.2408C16.1209 12.2014 16.0729 12.1767 16.021 12.1719C15.9652 12.1719 15.9117 12.1942 15.8722 12.234C15.8327 12.2737 15.8105 12.3276 15.8105 12.3839C15.8105 12.4401 15.8327 12.494 15.8722 12.5338C15.9117 12.5735 15.9652 12.5959 16.021 12.5959Z" fill="white"/>
<path d="M14.7583 13.7363C14.7167 13.7363 14.676 13.7488 14.6414 13.7721C14.6068 13.7954 14.5798 13.8285 14.5638 13.8672C14.5479 13.9059 14.5437 13.9486 14.5519 13.9897C14.56 14.0308 14.58 14.0686 14.6095 14.0982C14.6389 14.1279 14.6764 14.1481 14.7173 14.1563C14.7581 14.1644 14.8004 14.1602 14.8389 14.1442C14.8774 14.1281 14.9102 14.101 14.9334 14.0661C14.9565 14.0312 14.9688 13.9903 14.9688 13.9483C14.9651 13.8933 14.9418 13.8416 14.9031 13.8026C14.8644 13.7636 14.8129 13.7401 14.7583 13.7363Z" fill="white"/>
<path d="M16.8111 13.5236C16.8527 13.5236 16.8934 13.5112 16.928 13.4879C16.9627 13.4646 16.9896 13.4315 17.0056 13.3927C17.0215 13.354 17.0257 13.3114 17.0175 13.2702C17.0094 13.2291 16.9894 13.1914 16.9599 13.1617C16.9305 13.1321 16.893 13.1119 16.8521 13.1037C16.8113 13.0955 16.769 13.0997 16.7305 13.1157C16.6921 13.1318 16.6592 13.159 16.636 13.1938C16.6129 13.2287 16.6006 13.2697 16.6006 13.3116C16.6269 13.4441 16.7058 13.5236 16.8111 13.5236Z" fill="white"/>
<path d="M13.6802 11.75C13.6386 11.75 13.598 11.7625 13.5634 11.7858C13.5287 11.809 13.5017 11.8422 13.4857 11.8809C13.4698 11.9196 13.4656 11.9623 13.4737 12.0034C13.4819 12.0445 13.5019 12.0823 13.5314 12.1119C13.5608 12.1416 13.5984 12.1618 13.6392 12.1699C13.6801 12.1781 13.7224 12.1739 13.7609 12.1579C13.7993 12.1418 13.8321 12.1147 13.8552 12.0798C13.8784 12.0449 13.8908 12.004 13.8908 11.962C13.8912 11.9341 13.8859 11.9063 13.8755 11.8804C13.8651 11.8545 13.8496 11.831 13.83 11.8112C13.8103 11.7914 13.787 11.7758 13.7612 11.7653C13.7355 11.7548 13.708 11.7496 13.6802 11.75Z" fill="white"/>
<path d="M14.1275 12.7832C14.0858 12.7832 14.0451 12.7956 14.0105 12.8189C13.9759 12.8422 13.9489 12.8753 13.933 12.9141C13.9171 12.9528 13.9129 12.9954 13.921 13.0366C13.9291 13.0777 13.9492 13.1155 13.9786 13.1451C14.0081 13.1748 14.0456 13.1949 14.0864 13.2031C14.1272 13.2113 14.1696 13.2071 14.208 13.1911C14.2465 13.175 14.2794 13.1478 14.3025 13.113C14.3256 13.0781 14.338 13.0371 14.338 12.9952C14.3117 12.8627 14.2327 12.7832 14.1275 12.7832Z" fill="white"/>
<path d="M15.5748 14.5039C15.5331 14.5039 15.4924 14.5163 15.4578 14.5396C15.4232 14.5629 15.3962 14.596 15.3803 14.6348C15.3643 14.6735 15.3602 14.7161 15.3683 14.7573C15.3764 14.7984 15.3965 14.8362 15.4259 14.8658C15.4553 14.8955 15.4928 14.9157 15.5337 14.9238C15.5745 14.932 15.6168 14.9278 15.6553 14.9118C15.6938 14.8957 15.7267 14.8686 15.7498 14.8337C15.7729 14.7988 15.7853 14.7578 15.7853 14.7159C15.7589 14.6099 15.68 14.5039 15.5748 14.5039Z" fill="white"/>
<path d="M17.5993 11.6955C17.6409 11.6955 17.6816 11.6831 17.7162 11.6598C17.7508 11.6365 17.7778 11.6034 17.7937 11.5646C17.8097 11.5259 17.8138 11.4832 17.8057 11.4421C17.7976 11.401 17.7775 11.3632 17.7481 11.3336C17.7187 11.3039 17.6812 11.2837 17.6403 11.2756C17.5995 11.2674 17.5572 11.2716 17.5187 11.2876C17.4802 11.3037 17.4473 11.3308 17.4242 11.3657C17.4011 11.4006 17.3887 11.4416 17.3887 11.4835C17.4151 11.616 17.494 11.6955 17.5993 11.6955Z" fill="white"/>
<path d="M19.0455 14.1602C19.0039 14.1602 18.9632 14.1726 18.9286 14.1959C18.894 14.2192 18.867 14.2523 18.851 14.291C18.8351 14.3298 18.8309 14.3724 18.8391 14.4135C18.8472 14.4547 18.8672 14.4924 18.8967 14.5221C18.9261 14.5517 18.9636 14.5719 19.0045 14.5801C19.0453 14.5883 19.0876 14.5841 19.1261 14.568C19.1646 14.552 19.1974 14.5248 19.2206 14.49C19.2437 14.4551 19.256 14.4141 19.256 14.3722C19.2564 14.3442 19.2513 14.3165 19.2408 14.2906C19.2304 14.2647 19.2149 14.2411 19.1953 14.2214C19.1756 14.2016 19.1523 14.186 19.1266 14.1755C19.1008 14.165 19.0733 14.1598 19.0455 14.1602Z" fill="white"/>
<path d="M19.5455 12.543C19.4897 12.543 19.4362 12.5653 19.3967 12.6051C19.3572 12.6448 19.335 12.6988 19.335 12.755C19.335 12.8112 19.3572 12.8651 19.3967 12.9049C19.4362 12.9447 19.4897 12.967 19.5455 12.967C19.5738 12.9696 19.6023 12.9659 19.6291 12.9562C19.6558 12.9465 19.68 12.9309 19.7001 12.9107C19.7202 12.8905 19.7357 12.866 19.7453 12.8391C19.755 12.8122 19.7586 12.7835 19.756 12.755C19.7564 12.727 19.7513 12.6993 19.7408 12.6734C19.7304 12.6475 19.7149 12.624 19.6953 12.6042C19.6756 12.5844 19.6523 12.5688 19.6266 12.5583C19.6008 12.5478 19.5733 12.5426 19.5455 12.543Z" fill="white"/>
<path d="M19.4146 10.9012C19.3729 10.9012 19.3322 10.9136 19.2976 10.9369C19.263 10.9602 19.236 10.9933 19.2201 11.0321C19.2042 11.0708 19.2 11.1134 19.2081 11.1546C19.2162 11.1957 19.2363 11.2335 19.2657 11.2631C19.2952 11.2928 19.3327 11.313 19.3735 11.3211C19.4143 11.3293 19.4567 11.3251 19.4951 11.3091C19.5336 11.293 19.5665 11.2658 19.5896 11.231C19.6127 11.1961 19.6251 11.1551 19.6251 11.1132C19.6277 11.0847 19.624 11.056 19.6144 11.0291C19.6047 11.0022 19.5893 10.9777 19.5692 10.9575C19.5491 10.9373 19.5248 10.9217 19.4981 10.912C19.4714 10.9023 19.4429 10.8986 19.4146 10.9012Z" fill="white"/>
<path d="M20.3619 11.1934C20.3202 11.1934 20.2795 11.2058 20.2449 11.2291C20.2103 11.2524 20.1833 11.2855 20.1674 11.3242C20.1514 11.363 20.1473 11.4056 20.1554 11.4467C20.1635 11.4878 20.1836 11.5256 20.213 11.5553C20.2424 11.5849 20.28 11.6051 20.3208 11.6133C20.3616 11.6215 20.404 11.6173 20.4424 11.6012C20.4809 11.5852 20.5138 11.558 20.5369 11.5231C20.56 11.4883 20.5724 11.4473 20.5724 11.4054C20.5687 11.3504 20.5453 11.2986 20.5066 11.2596C20.4679 11.2206 20.4165 11.1971 20.3619 11.1934Z" fill="white"/>
<path d="M18.7301 10.293C18.6885 10.293 18.6478 10.3054 18.6131 10.3287C18.5785 10.352 18.5515 10.3851 18.5356 10.4238C18.5197 10.4626 18.5155 10.5052 18.5236 10.5463C18.5318 10.5875 18.5518 10.6252 18.5812 10.6549C18.6107 10.6845 18.6482 10.7047 18.689 10.7129C18.7299 10.7211 18.7722 10.7169 18.8107 10.7008C18.8491 10.6848 18.882 10.6576 18.9051 10.6227C18.9283 10.5879 18.9406 10.5469 18.9406 10.505C18.9143 10.3725 18.8354 10.293 18.7301 10.293Z" fill="white"/>
<path d="M18.3365 9.52344C18.2948 9.52344 18.2541 9.53587 18.2195 9.55917C18.1849 9.58246 18.1579 9.61557 18.142 9.65431C18.126 9.69305 18.1219 9.73567 18.13 9.7768C18.1381 9.81792 18.1582 9.8557 18.1876 9.88534C18.2171 9.91499 18.2546 9.93518 18.2954 9.94336C18.3362 9.95154 18.3786 9.94735 18.417 9.9313C18.4555 9.91525 18.4884 9.88808 18.5115 9.85322C18.5346 9.81835 18.547 9.77737 18.547 9.73544C18.5207 9.62944 18.4417 9.52344 18.3365 9.52344Z" fill="white"/>
<path d="M19.151 9.52344C19.1094 9.52344 19.0687 9.53587 19.034 9.55917C18.9994 9.58246 18.9724 9.61557 18.9565 9.65431C18.9406 9.69305 18.9364 9.73567 18.9445 9.7768C18.9527 9.81792 18.9727 9.8557 19.0021 9.88534C19.0316 9.91499 19.0691 9.93518 19.1099 9.94336C19.1508 9.95154 19.1931 9.94735 19.2316 9.9313C19.27 9.91525 19.3029 9.88808 19.326 9.85322C19.3492 9.81835 19.3615 9.77737 19.3615 9.73544C19.3578 9.68044 19.3344 9.62867 19.2957 9.58969C19.257 9.55072 19.2056 9.52718 19.151 9.52344Z" fill="white"/>
<path d="M18.2051 8.99508C18.2078 8.95384 18.2254 8.91501 18.2544 8.88577C18.2834 8.85654 18.322 8.83889 18.3629 8.83608C18.3839 8.83516 18.4049 8.83864 18.4244 8.84631C18.444 8.85397 18.4618 8.86565 18.4766 8.8806C18.4915 8.89556 18.5031 8.91345 18.5107 8.93316C18.5183 8.95287 18.5217 8.97396 18.5208 8.99508C18.5208 9.03725 18.5042 9.07769 18.4746 9.10751C18.445 9.13733 18.4048 9.15408 18.3629 9.15408C18.3211 9.15408 18.2809 9.13733 18.2513 9.10751C18.2217 9.07769 18.2051 9.03725 18.2051 8.99508Z" fill="white"/>
<path d="M18.7041 8.38445C18.7041 8.35825 18.7118 8.33263 18.7262 8.31084C18.7407 8.28905 18.7612 8.27207 18.7853 8.26204C18.8093 8.25201 18.8358 8.24939 18.8613 8.2545C18.8868 8.25961 18.9103 8.27223 18.9287 8.29076C18.9471 8.30929 18.9596 8.3329 18.9647 8.3586C18.9698 8.38431 18.9672 8.41095 18.9572 8.43516C18.9472 8.45937 18.9304 8.48006 18.9087 8.49462C18.8871 8.50918 18.8617 8.51695 18.8356 8.51695C18.8015 8.51472 18.7693 8.50004 18.7451 8.47566C18.7209 8.45128 18.7063 8.41886 18.7041 8.38445Z" fill="white"/>
<path d="M19.335 8.09428C19.335 8.07332 19.3412 8.05282 19.3528 8.03539C19.3643 8.01796 19.3808 8.00437 19.4 7.99635C19.4192 7.98833 19.4404 7.98623 19.4608 7.99032C19.4812 7.99441 19.5 8.0045 19.5147 8.01933C19.5294 8.03415 19.5394 8.05304 19.5435 8.0736C19.5476 8.09416 19.5455 8.11548 19.5375 8.13485C19.5296 8.15421 19.5161 8.17077 19.4987 8.18242C19.4814 8.19406 19.4611 8.20028 19.4403 8.20028C19.413 8.19841 19.3873 8.18664 19.3679 8.16715C19.3486 8.14767 19.3369 8.12178 19.335 8.09428Z" fill="white"/>
<path d="M22.0713 9.47123C22.0713 9.45027 22.0774 9.42978 22.089 9.41234C22.1006 9.39491 22.117 9.38133 22.1362 9.3733C22.1555 9.36528 22.1766 9.36318 22.197 9.36727C22.2175 9.37136 22.2362 9.38146 22.2509 9.39628C22.2657 9.41111 22.2757 9.42999 22.2797 9.45055C22.2838 9.47112 22.2817 9.49243 22.2738 9.5118C22.2658 9.53117 22.2523 9.54772 22.235 9.55937C22.2177 9.57102 22.1973 9.57723 22.1765 9.57723C22.1492 9.57536 22.1235 9.5636 22.1042 9.54411C22.0848 9.52462 22.0731 9.49873 22.0713 9.47123Z" fill="white"/>
<path d="M21.9131 11.4576C21.9131 11.4366 21.9193 11.4161 21.9309 11.3987C21.9424 11.3812 21.9589 11.3677 21.9781 11.3596C21.9973 11.3516 22.0185 11.3495 22.0389 11.3536C22.0593 11.3577 22.0781 11.3678 22.0928 11.3826C22.1075 11.3974 22.1176 11.4163 22.1216 11.4369C22.1257 11.4574 22.1236 11.4788 22.1156 11.4981C22.1077 11.5175 22.0942 11.5341 22.0769 11.5457C22.0596 11.5573 22.0392 11.5636 22.0184 11.5636C21.9921 11.5636 21.9395 11.5106 21.9131 11.4576Z" fill="white"/>
<path d="M22.2021 11.0865C22.2021 11.0655 22.2083 11.045 22.2198 11.0276C22.2314 11.0101 22.2478 10.9966 22.2671 10.9885C22.2863 10.9805 22.3075 10.9784 22.3279 10.9825C22.3483 10.9866 22.3671 10.9967 22.3818 11.0115C22.3965 11.0263 22.4065 11.0452 22.4106 11.0658C22.4147 11.0864 22.4126 11.1077 22.4046 11.127C22.3966 11.1464 22.3831 11.163 22.3658 11.1746C22.3485 11.1863 22.3282 11.1925 22.3074 11.1925C22.2801 11.1906 22.2543 11.1788 22.235 11.1593C22.2156 11.1399 22.204 11.114 22.2021 11.0865Z" fill="white"/>
<path d="M21.624 11.856C21.624 11.835 21.6302 11.8145 21.6417 11.7971C21.6533 11.7797 21.6697 11.7661 21.689 11.7581C21.7082 11.75 21.7294 11.7479 21.7498 11.752C21.7702 11.7561 21.789 11.7662 21.8037 11.781C21.8184 11.7959 21.8284 11.8148 21.8325 11.8353C21.8365 11.8559 21.8345 11.8772 21.8265 11.8966C21.8185 11.9159 21.805 11.9325 21.7877 11.9441C21.7704 11.9558 21.7501 11.962 21.7292 11.962C21.7019 11.9601 21.6762 11.9484 21.6569 11.9289C21.6375 11.9094 21.6258 11.8835 21.624 11.856Z" fill="white"/>
<path d="M21.2812 12.1997C21.2812 12.1788 21.2875 12.1583 21.299 12.1409C21.3106 12.1234 21.327 12.1098 21.3463 12.1018C21.3655 12.0938 21.3867 12.0917 21.4071 12.0958C21.4275 12.0999 21.4463 12.11 21.461 12.1248C21.4757 12.1396 21.4856 12.1585 21.4897 12.1791C21.4938 12.1996 21.4917 12.2209 21.4837 12.2403C21.4757 12.2597 21.4623 12.2762 21.445 12.2879C21.4277 12.2995 21.4074 12.3057 21.3866 12.3057C21.3339 12.3057 21.3076 12.2527 21.2812 12.1997Z" fill="white"/>
<path d="M22.4658 10.69C22.4658 10.669 22.472 10.6485 22.4835 10.6311C22.4951 10.6137 22.5115 10.6001 22.5308 10.5921C22.55 10.584 22.5712 10.5819 22.5916 10.586C22.612 10.5901 22.6308 10.6002 22.6455 10.615C22.6602 10.6299 22.6702 10.6487 22.6743 10.6693C22.6783 10.6899 22.6763 10.7112 22.6683 10.7305C22.6603 10.7499 22.6468 10.7665 22.6295 10.7781C22.6122 10.7898 22.5919 10.796 22.5711 10.796C22.5438 10.7941 22.518 10.7823 22.4987 10.7629C22.4793 10.7434 22.4677 10.7175 22.4658 10.69Z" fill="white"/>
<path d="M22.6504 10.3462C22.6504 10.3253 22.6565 10.3048 22.6681 10.2873C22.6797 10.2699 22.6961 10.2563 22.7153 10.2483C22.7346 10.2403 22.7557 10.2382 22.7762 10.2423C22.7966 10.2464 22.8153 10.2565 22.8301 10.2713C22.8448 10.2861 22.8548 10.305 22.8589 10.3256C22.8629 10.3461 22.8608 10.3674 22.8529 10.3868C22.8449 10.4062 22.8314 10.4227 22.8141 10.4344C22.7968 10.446 22.7764 10.4522 22.7556 10.4522C22.703 10.4522 22.6767 10.4257 22.6504 10.3462Z" fill="white"/>
<path d="M10.2865 18.795C10.0763 18.41 9.94672 17.9857 9.90602 17.5482C9.86532 17.1108 9.91422 16.6696 10.0497 16.252C10.6023 14.8215 12.2065 15.007 12.2065 15.007C11.9414 14.888 11.6523 14.8335 11.3624 14.848C10.8093 14.8963 10.2975 15.1628 9.93872 15.5895C9.57982 16.0163 9.40312 16.5686 9.44702 17.126C9.47152 17.4465 9.55872 17.7589 9.70352 18.0454C9.84842 18.3318 10.048 18.5865 10.291 18.795" fill="white"/>
<path d="M7.6308 14.7693C7.4711 14.61 7.3446 14.4201 7.2588 14.2108C7.1729 14.0016 7.1294 13.7772 7.1309 13.5508C7.1388 13.0966 7.3215 12.6632 7.6404 12.342C7.9594 12.0207 8.3898 11.8368 8.8408 11.8288C9.8139 11.7758 11.6028 12.0673 12.7601 11.9083C13.1548 13.6833 14.47 14.9283 15.4411 15.7228C14.2575 15.1928 13.0739 13.7888 11.706 13.0228C10.2856 12.2283 8.8388 12.0958 8.0762 12.8108C7.8345 13.0675 7.6656 13.3848 7.587 13.7296C7.5084 14.0744 7.523 14.4341 7.6293 14.7713" fill="white"/>
<path d="M11.683 16.5708C11.7619 17.0743 10.8389 17.2593 10.8389 17.2593C11.683 17.4183 11.9436 16.9678 11.9436 16.9678C11.8718 16.8253 11.7835 16.6919 11.6805 16.5703" fill="white"/>
<path d="M18.3361 16.8355C18.3361 16.8355 17.7835 17.6035 18.1782 19.0355C17.889 19.264 17.5585 19.4338 17.2051 19.5355C17.2051 19.5355 18.4676 19.6945 18.8623 19.032C18.0734 18.4225 18.3097 16.9395 18.3361 16.832" fill="white"/>
<path d="M20.8351 8.72888C20.6224 8.67051 20.3953 8.69899 20.2033 8.80814C20.0113 8.91728 19.8697 9.09829 19.8094 9.31188C19.7989 9.42176 19.8105 9.53264 19.8434 9.63792C19.8764 9.7432 19.9301 9.84073 20.0012 9.9247C20.0724 10.0087 20.1596 10.0774 20.2576 10.1267C20.3557 10.176 20.4626 10.205 20.572 10.2119C20.7847 10.2702 21.0118 10.2418 21.2038 10.1326C21.3958 10.0235 21.5374 9.84247 21.5977 9.62888C21.6082 9.51899 21.5966 9.40811 21.5637 9.30283C21.5307 9.19755 21.477 9.10003 21.4059 9.01606C21.3347 8.93209 21.2475 8.86339 21.1495 8.81405C21.0514 8.76472 20.9445 8.73575 20.8351 8.72888ZM21.4667 9.60288C21.4224 9.75584 21.3209 9.88552 21.1835 9.96461C21.0462 10.0437 20.8837 10.066 20.7304 10.0269C20.6542 10.0202 20.5801 9.99846 20.5124 9.96283C20.4447 9.9272 20.3846 9.87841 20.3357 9.81929C20.2867 9.76016 20.2499 9.69186 20.2273 9.61833C20.2047 9.5448 20.1968 9.4675 20.2041 9.39088C20.2484 9.23792 20.3499 9.10824 20.4872 9.02915C20.6246 8.95006 20.787 8.92774 20.9404 8.96688C21.0165 8.97353 21.0906 8.9953 21.1583 9.03093C21.2261 9.06656 21.2861 9.11534 21.3351 9.17447C21.384 9.2336 21.4208 9.30189 21.4434 9.37542C21.466 9.44895 21.4739 9.52626 21.4667 9.60288Z" fill="white"/>
<path d="M20.8086 9.47226C20.8325 9.38979 20.8865 9.31943 20.9596 9.27523C21.0328 9.23102 21.1198 9.21622 21.2033 9.23376C21.287 9.24101 21.3644 9.28132 21.4186 9.34587C21.4729 9.41042 21.4995 9.49397 21.4928 9.57826C21.4688 9.66072 21.4149 9.73108 21.3418 9.77528C21.2686 9.81949 21.1816 9.8343 21.0981 9.81676C21.0144 9.8095 20.937 9.76919 20.8828 9.70464C20.8285 9.64009 20.8019 9.55654 20.8086 9.47226Z" fill="white"/>
<path d="M19.7828 16.147C20.0723 16.7035 19.125 16.915 19.125 16.915C19.8086 17.021 20.177 16.6235 20.177 16.438C20.0322 16.3605 19.8998 16.2628 19.7828 16.147Z" fill="white"/>
<path d="M13.8647 14.3186C13.8647 14.3186 13.9962 14.4776 14.2067 14.6896C14.4723 14.9462 14.7543 15.1851 15.0508 15.4046C15.3407 15.6248 15.6487 15.8198 15.9713 15.9876C16.0709 16.0513 16.1767 16.1046 16.287 16.1466C16.1678 16.1058 16.0532 16.0525 15.945 15.9876C15.6079 15.8255 15.2827 15.6396 14.9718 15.4311C14.6641 15.2262 14.3739 14.9959 14.104 14.7426C13.973 14.6275 13.8499 14.5035 13.7356 14.3716C13.7228 14.357 13.7158 14.3381 13.7158 14.3186C13.7158 14.2991 13.7228 14.2803 13.7356 14.2656C13.7844 14.2664 13.8312 14.2853 13.8671 14.3186" fill="white"/>
<path d="M21.8081 9.17973C21.6886 8.97152 21.519 8.79698 21.3148 8.67223C21.1107 8.54749 20.8787 8.47656 20.6401 8.46599C20.4016 8.45543 20.1642 8.50557 19.95 8.61179C19.7358 8.71801 19.5516 8.87688 19.4145 9.07373C19.3957 9.09704 19.3725 9.11634 19.3462 9.1305C19.3199 9.14465 19.2911 9.15338 19.2614 9.15618C19.2317 9.15897 19.2018 9.15576 19.1734 9.14675C19.1449 9.13774 19.1186 9.1231 19.0958 9.10369C19.0731 9.08428 19.0544 9.0605 19.0409 9.03373C19.0274 9.00697 19.0194 8.97776 19.0172 8.94782C19.0151 8.91788 19.0189 8.88781 19.0285 8.85937C19.038 8.83094 19.0531 8.80471 19.0729 8.78223C19.2266 8.60484 19.4168 8.4633 19.6303 8.36746C19.8438 8.27161 20.0754 8.22376 20.3091 8.22723C20.6249 8.21806 20.9362 8.30387 21.2032 8.47371C21.4703 8.64354 21.6811 8.8897 21.8086 9.18073" fill="white"/>
<path d="M20.256 12.1228C19.6137 12.0548 19.0032 11.8071 18.4934 11.4078C18.0361 11.0828 17.6583 10.657 17.3888 10.1628C17.3624 10.0833 17.3624 9.97733 17.4414 9.95083C17.4581 9.93866 17.4773 9.93032 17.4976 9.9264C17.5179 9.92247 17.5388 9.92305 17.5589 9.9281C17.5789 9.93314 17.5976 9.94254 17.6137 9.95562C17.6297 9.9687 17.6428 9.98515 17.6519 10.0038C17.9022 10.5247 18.261 10.9852 18.704 11.3538C19.1572 11.7246 19.6877 11.9875 20.256 12.1228Z" fill="white"/>
<path d="M19.5721 13.498C18.5134 13.401 17.5287 12.9098 16.8106 12.1205C16.4703 11.7537 16.1786 11.3442 15.9427 10.902C15.9218 10.8668 15.9156 10.8248 15.9254 10.785C15.9353 10.7453 15.9605 10.7111 15.9954 10.69C16.0303 10.6689 16.072 10.6626 16.1115 10.6726C16.151 10.6825 16.1849 10.7078 16.2059 10.743C16.4542 11.3126 16.8015 11.833 17.2316 12.2795C17.8517 12.9419 18.6769 13.3717 19.5721 13.498Z" fill="white"/>
<path d="M14.4429 11.4314C14.4619 11.426 14.4818 11.4245 14.5014 11.4269C14.521 11.4293 14.5399 11.4357 14.557 11.4455C14.5741 11.4554 14.5892 11.4686 14.6012 11.4844C14.6132 11.5001 14.622 11.5181 14.6271 11.5374C14.9035 12.3549 15.3621 13.0978 15.9676 13.7094C16.8417 14.5995 18.0145 15.1285 19.2559 15.1929C17.924 15.1905 16.6473 14.6571 15.705 13.7094C15.1175 13.1243 14.6606 12.4201 14.3644 11.6434C14.3525 11.6249 14.345 11.6039 14.3426 11.582C14.3402 11.56 14.343 11.5379 14.3506 11.5172C14.3583 11.4966 14.3707 11.4781 14.3868 11.4632C14.4029 11.4482 14.4218 11.4373 14.4429 11.4314Z" fill="white"/>
<path d="M19.8081 10.2404C20.0645 10.4142 20.3668 10.5065 20.6759 10.5054C20.9384 10.5257 21.1991 10.4476 21.4079 10.2862C21.6167 10.1248 21.759 9.89144 21.8074 9.63086C21.7738 9.93715 21.629 10.2201 21.4008 10.4255C21.1726 10.6308 20.8772 10.744 20.5712 10.7434C20.2512 10.7549 19.9339 10.6818 19.6507 10.5314C19.6135 10.5125 19.5847 10.4802 19.5701 10.4409C19.5555 10.4016 19.556 10.3582 19.5717 10.3194C19.6507 10.2399 19.7554 10.1874 19.8081 10.2404Z" fill="white"/>
</g>
<defs>
<clipPath id="clip0_1083_275">
<rect width="28" height="28" fill="white"/>
</clipPath>
</defs>
</svg>
